<mxfile host="www.draw.io" modified="2020-02-12T13:12:07.183Z" agent="Mozilla/5.0 (X11; Linux x86_64; rv:72.0) Gecko/20100101 Firefox/72.0" etag="A5megKgXRLJOULft67pV" version="12.6.8" type="github">
  <diagram id="ukHl8042wRMhrqS-pLlN" name="Page-1">
    <mxGraphModel dx="1414" dy="768" grid="1" gridSize="10" guides="1" tooltips="1" connect="1" arrows="1" fold="1" page="1" pageScale="1" pageWidth="827" pageHeight="1169" math="0" shadow="0">
      <root>
        <mxCell id="0"/>
        <mxCell id="1" parent="0"/>
        <mxCell id="zClbhPuZxZK9FAB6tKzK-45" style="edgeStyle=none;rounded=0;orthogonalLoop=1;jettySize=auto;html=1;fontSize=12;entryX=0.2;entryY=-0.047;entryDx=0;entryDy=0;entryPerimeter=0;" edge="1" parent="1" source="zClbhPuZxZK9FAB6tKzK-1" target="zClbhPuZxZK9FAB6tKzK-10">
          <mxGeometry relative="1" as="geometry">
            <mxPoint x="250" y="180" as="targetPoint"/>
          </mxGeometry>
        </mxCell>
        <mxCell id="zClbhPuZxZK9FAB6tKzK-1" value="&amp;gt;&amp;gt; 0" style="shape=parallelogram;perimeter=parallelogramPerimeter;whiteSpace=wrap;html=1;fontSize=10;" vertex="1" parent="1">
          <mxGeometry x="250" y="140" width="40" height="20" as="geometry"/>
        </mxCell>
        <mxCell id="zClbhPuZxZK9FAB6tKzK-44" style="edgeStyle=none;rounded=0;orthogonalLoop=1;jettySize=auto;html=1;entryX=0.848;entryY=-0.02;entryDx=0;entryDy=0;entryPerimeter=0;fontSize=12;" edge="1" parent="1" source="zClbhPuZxZK9FAB6tKzK-2" target="zClbhPuZxZK9FAB6tKzK-5">
          <mxGeometry relative="1" as="geometry"/>
        </mxCell>
        <mxCell id="zClbhPuZxZK9FAB6tKzK-2" value="&amp;gt;&amp;gt; 0" style="shape=parallelogram;perimeter=parallelogramPerimeter;whiteSpace=wrap;html=1;fontSize=10;" vertex="1" parent="1">
          <mxGeometry x="144" y="140" width="40" height="20" as="geometry"/>
        </mxCell>
        <mxCell id="zClbhPuZxZK9FAB6tKzK-3" value="" style="group" vertex="1" connectable="0" parent="1">
          <mxGeometry x="120" y="190" width="50" height="50" as="geometry"/>
        </mxCell>
        <mxCell id="zClbhPuZxZK9FAB6tKzK-4" value="" style="group;fontSize=8;" vertex="1" connectable="0" parent="zClbhPuZxZK9FAB6tKzK-3">
          <mxGeometry width="50" height="50" as="geometry"/>
        </mxCell>
        <mxCell id="zClbhPuZxZK9FAB6tKzK-5" value="" style="verticalLabelPosition=bottom;shadow=0;dashed=0;align=center;html=1;verticalAlign=top;shape=stencil(rVbBcoMgEP0arxmVMu21Q9NjLjnkTJTGbRQcpEn796Ws1Zo0yhBmnHF4u7y3D1wkIayreCuSPOVdKwqTkJckz09cA9/XFs5tpEKQpjiUvBGI7ECWIA8WY0pKOxuUxJzOaHUUZyhNPxlkJTQYjJ4Ry1LHSNZJ+mzR8SGsGPi6f+JXuVaOgzST4jao1VrZRhihEe09fPajFcXx19/oa6jkNkAyu09y5yM59dgXECy59pDM4kpuvGyusoeL7RyQ8C0NVX6i93r2WedRJ6bnUOVlz4TZ6HxzE7bnxfGg1Ycs53lm8wh7U1os0AypUNd4ZPksWw1SvCuwR13qXs49Cvmte8t/jsXZpOmERp3EzX72Er12MPKR2IR0ShiB8TF2if2/JyLjRYk0+r4EMRa16jw+6t90m+nxcdpLw2KzOK4bLehieO9w8Dc=);" vertex="1" parent="zClbhPuZxZK9FAB6tKzK-4">
          <mxGeometry width="50" height="50" as="geometry"/>
        </mxCell>
        <mxCell id="zClbhPuZxZK9FAB6tKzK-6" value="+" style="text;html=1;strokeColor=none;fillColor=none;align=center;verticalAlign=middle;whiteSpace=wrap;rounded=0;fontSize=8;" vertex="1" parent="zClbhPuZxZK9FAB6tKzK-4">
          <mxGeometry x="6.166666666666667" width="8.333333333333334" height="12.5" as="geometry"/>
        </mxCell>
        <mxCell id="zClbhPuZxZK9FAB6tKzK-7" value="+/-" style="text;html=1;strokeColor=none;fillColor=none;align=center;verticalAlign=middle;whiteSpace=wrap;rounded=0;fontSize=8;" vertex="1" parent="zClbhPuZxZK9FAB6tKzK-4">
          <mxGeometry x="35.5" width="8.333333333333334" height="12.5" as="geometry"/>
        </mxCell>
        <mxCell id="zClbhPuZxZK9FAB6tKzK-8" value="" style="group" vertex="1" connectable="0" parent="1">
          <mxGeometry x="260" y="190" width="50" height="50" as="geometry"/>
        </mxCell>
        <mxCell id="zClbhPuZxZK9FAB6tKzK-9" value="" style="group;fontSize=8;" vertex="1" connectable="0" parent="zClbhPuZxZK9FAB6tKzK-8">
          <mxGeometry width="50" height="50" as="geometry"/>
        </mxCell>
        <mxCell id="zClbhPuZxZK9FAB6tKzK-10" value="" style="verticalLabelPosition=bottom;shadow=0;dashed=0;align=center;html=1;verticalAlign=top;shape=stencil(rVbBcoMgEP0arxmVMu21Q9NjLjnkTJTGbRQcpEn796Ws1Zo0yhBmnHF4u7y3D1wkIayreCuSPOVdKwqTkJckz09cA9/XFs5tpEKQpjiUvBGI7ECWIA8WY0pKOxuUxJzOaHUUZyhNPxlkJTQYjJ4Ry1LHSNZJ+mzR8SGsGPi6f+JXuVaOgzST4jao1VrZRhihEe09fPajFcXx19/oa6jkNkAyu09y5yM59dgXECy59pDM4kpuvGyusoeL7RyQ8C0NVX6i93r2WedRJ6bnUOVlz4TZ6HxzE7bnxfGg1Ycs53lm8wh7U1os0AypUNd4ZPksWw1SvCuwR13qXs49Cvmte8t/jsXZpOmERp3EzX72Er12MPKR2IR0ShiB8TF2if2/JyLjRYk0+r4EMRa16jw+6t90m+nxcdpLw2KzOK4bLehieO9w8Dc=);" vertex="1" parent="zClbhPuZxZK9FAB6tKzK-9">
          <mxGeometry width="50" height="50" as="geometry"/>
        </mxCell>
        <mxCell id="zClbhPuZxZK9FAB6tKzK-11" value="+" style="text;html=1;strokeColor=none;fillColor=none;align=center;verticalAlign=middle;whiteSpace=wrap;rounded=0;fontSize=8;" vertex="1" parent="zClbhPuZxZK9FAB6tKzK-9">
          <mxGeometry x="6.166666666666667" width="8.333333333333334" height="12.5" as="geometry"/>
        </mxCell>
        <mxCell id="zClbhPuZxZK9FAB6tKzK-12" value="+/-" style="text;html=1;strokeColor=none;fillColor=none;align=center;verticalAlign=middle;whiteSpace=wrap;rounded=0;fontSize=8;" vertex="1" parent="zClbhPuZxZK9FAB6tKzK-9">
          <mxGeometry x="35.5" width="8.333333333333334" height="12.5" as="geometry"/>
        </mxCell>
        <mxCell id="zClbhPuZxZK9FAB6tKzK-13" value="" style="group;fontSize=8;" vertex="1" connectable="0" parent="1">
          <mxGeometry x="80" y="270" width="130" height="20" as="geometry"/>
        </mxCell>
        <mxCell id="zClbhPuZxZK9FAB6tKzK-14" value="Register" style="rounded=0;whiteSpace=wrap;html=1;fontStyle=0" vertex="1" parent="zClbhPuZxZK9FAB6tKzK-13">
          <mxGeometry width="130" height="20" as="geometry"/>
        </mxCell>
        <mxCell id="zClbhPuZxZK9FAB6tKzK-15" value="MSB" style="text;html=1;strokeColor=#000000;fillColor=none;align=center;verticalAlign=middle;whiteSpace=wrap;rounded=0;perimeterSpacing=1;dashed=1;fontSize=6;" vertex="1" parent="zClbhPuZxZK9FAB6tKzK-13">
          <mxGeometry width="15.600000000000001" height="20" as="geometry"/>
        </mxCell>
        <mxCell id="zClbhPuZxZK9FAB6tKzK-16" value="LSB" style="text;html=1;strokeColor=#000000;fillColor=none;align=center;verticalAlign=middle;whiteSpace=wrap;rounded=0;perimeterSpacing=1;dashed=1;fontSize=6;" vertex="1" parent="zClbhPuZxZK9FAB6tKzK-13">
          <mxGeometry x="114.4" width="15.600000000000001" height="20" as="geometry"/>
        </mxCell>
        <mxCell id="zClbhPuZxZK9FAB6tKzK-17" value="" style="group;fontSize=8;" vertex="1" connectable="0" parent="1">
          <mxGeometry x="220" y="270" width="130" height="20" as="geometry"/>
        </mxCell>
        <mxCell id="zClbhPuZxZK9FAB6tKzK-18" value="Register" style="rounded=0;whiteSpace=wrap;html=1;fontStyle=0" vertex="1" parent="zClbhPuZxZK9FAB6tKzK-17">
          <mxGeometry width="130" height="20" as="geometry"/>
        </mxCell>
        <mxCell id="zClbhPuZxZK9FAB6tKzK-19" value="MSB" style="text;html=1;strokeColor=#000000;fillColor=none;align=center;verticalAlign=middle;whiteSpace=wrap;rounded=0;perimeterSpacing=1;dashed=1;fontSize=6;" vertex="1" parent="zClbhPuZxZK9FAB6tKzK-17">
          <mxGeometry width="15.600000000000001" height="20" as="geometry"/>
        </mxCell>
        <mxCell id="zClbhPuZxZK9FAB6tKzK-20" value="LSB" style="text;html=1;strokeColor=#000000;fillColor=none;align=center;verticalAlign=middle;whiteSpace=wrap;rounded=0;perimeterSpacing=1;dashed=1;fontSize=6;" vertex="1" parent="zClbhPuZxZK9FAB6tKzK-17">
          <mxGeometry x="114.4" width="15.600000000000001" height="20" as="geometry"/>
        </mxCell>
        <mxCell id="zClbhPuZxZK9FAB6tKzK-43" style="edgeStyle=none;rounded=0;orthogonalLoop=1;jettySize=auto;html=1;entryX=0.1;entryY=-0.009;entryDx=0;entryDy=0;entryPerimeter=0;fontSize=12;" edge="1" parent="1" source="zClbhPuZxZK9FAB6tKzK-21" target="zClbhPuZxZK9FAB6tKzK-5">
          <mxGeometry relative="1" as="geometry"/>
        </mxCell>
        <mxCell id="zClbhPuZxZK9FAB6tKzK-21" value="&lt;font style=&quot;font-size: 12px;&quot;&gt;x&lt;sub style=&quot;font-size: 12px;&quot;&gt;0&lt;/sub&gt;&lt;/font&gt;" style="text;html=1;align=center;verticalAlign=middle;resizable=0;points=[];autosize=1;fontSize=12;fontStyle=1" vertex="1" parent="1">
          <mxGeometry x="111" y="76" width="30" height="20" as="geometry"/>
        </mxCell>
        <mxCell id="zClbhPuZxZK9FAB6tKzK-46" style="edgeStyle=none;rounded=0;orthogonalLoop=1;jettySize=auto;html=1;entryX=0.847;entryY=-0.047;entryDx=0;entryDy=0;entryPerimeter=0;fontSize=12;" edge="1" parent="1" source="zClbhPuZxZK9FAB6tKzK-22" target="zClbhPuZxZK9FAB6tKzK-10">
          <mxGeometry relative="1" as="geometry"/>
        </mxCell>
        <mxCell id="zClbhPuZxZK9FAB6tKzK-22" value="&lt;font style=&quot;font-size: 12px;&quot;&gt;y&lt;sub style=&quot;font-size: 12px;&quot;&gt;0&lt;/sub&gt;&lt;/font&gt;" style="text;html=1;align=center;verticalAlign=middle;resizable=0;points=[];autosize=1;fontSize=12;fontStyle=1" vertex="1" parent="1">
          <mxGeometry x="288" y="76" width="30" height="20" as="geometry"/>
        </mxCell>
        <mxCell id="zClbhPuZxZK9FAB6tKzK-36" style="edgeStyle=none;rounded=0;orthogonalLoop=1;jettySize=auto;html=1;entryX=0.18;entryY=-0.032;entryDx=0;entryDy=0;entryPerimeter=0;fontSize=6;" edge="1" parent="1" source="zClbhPuZxZK9FAB6tKzK-23" target="zClbhPuZxZK9FAB6tKzK-27">
          <mxGeometry relative="1" as="geometry"/>
        </mxCell>
        <mxCell id="zClbhPuZxZK9FAB6tKzK-23" value="&lt;font style=&quot;font-size: 12px;&quot;&gt;z&lt;sub style=&quot;font-size: 12px;&quot;&gt;0&lt;/sub&gt;&lt;/font&gt;" style="text;html=1;align=center;verticalAlign=middle;resizable=0;points=[];autosize=1;fontSize=12;fontStyle=1" vertex="1" parent="1">
          <mxGeometry x="425.43" y="76" width="30" height="20" as="geometry"/>
        </mxCell>
        <mxCell id="zClbhPuZxZK9FAB6tKzK-35" style="edgeStyle=none;rounded=0;orthogonalLoop=1;jettySize=auto;html=1;fontSize=6;entryX=0.869;entryY=-0.027;entryDx=0;entryDy=0;entryPerimeter=0;exitX=0.224;exitY=0.947;exitDx=0;exitDy=0;exitPerimeter=0;" edge="1" parent="1" source="zClbhPuZxZK9FAB6tKzK-24" target="zClbhPuZxZK9FAB6tKzK-27">
          <mxGeometry relative="1" as="geometry">
            <mxPoint x="481.43" y="181" as="targetPoint"/>
          </mxGeometry>
        </mxCell>
        <mxCell id="zClbhPuZxZK9FAB6tKzK-24" value="&lt;font style=&quot;font-size: 10px&quot;&gt;arctan(2&lt;sup&gt;0&lt;/sup&gt;)&lt;/font&gt;" style="rounded=0;whiteSpace=wrap;html=1;fontSize=6;" vertex="1" parent="1">
          <mxGeometry x="461.43" y="96" width="60" height="20" as="geometry"/>
        </mxCell>
        <mxCell id="zClbhPuZxZK9FAB6tKzK-25" value="" style="group" vertex="1" connectable="0" parent="1">
          <mxGeometry x="431.43" y="160" width="50" height="50" as="geometry"/>
        </mxCell>
        <mxCell id="zClbhPuZxZK9FAB6tKzK-26" value="" style="group;fontSize=8;" vertex="1" connectable="0" parent="zClbhPuZxZK9FAB6tKzK-25">
          <mxGeometry width="50" height="50" as="geometry"/>
        </mxCell>
        <mxCell id="zClbhPuZxZK9FAB6tKzK-27" value="" style="verticalLabelPosition=bottom;shadow=0;dashed=0;align=center;html=1;verticalAlign=top;shape=stencil(rVbBcoMgEP0arxmVMu21Q9NjLjnkTJTGbRQcpEn796Ws1Zo0yhBmnHF4u7y3D1wkIayreCuSPOVdKwqTkJckz09cA9/XFs5tpEKQpjiUvBGI7ECWIA8WY0pKOxuUxJzOaHUUZyhNPxlkJTQYjJ4Ry1LHSNZJ+mzR8SGsGPi6f+JXuVaOgzST4jao1VrZRhihEe09fPajFcXx19/oa6jkNkAyu09y5yM59dgXECy59pDM4kpuvGyusoeL7RyQ8C0NVX6i93r2WedRJ6bnUOVlz4TZ6HxzE7bnxfGg1Ycs53lm8wh7U1os0AypUNd4ZPksWw1SvCuwR13qXs49Cvmte8t/jsXZpOmERp3EzX72Er12MPKR2IR0ShiB8TF2if2/JyLjRYk0+r4EMRa16jw+6t90m+nxcdpLw2KzOK4bLehieO9w8Dc=);" vertex="1" parent="zClbhPuZxZK9FAB6tKzK-26">
          <mxGeometry width="50" height="50" as="geometry"/>
        </mxCell>
        <mxCell id="zClbhPuZxZK9FAB6tKzK-28" value="+" style="text;html=1;strokeColor=none;fillColor=none;align=center;verticalAlign=middle;whiteSpace=wrap;rounded=0;fontSize=8;" vertex="1" parent="zClbhPuZxZK9FAB6tKzK-26">
          <mxGeometry x="6.166666666666667" width="8.333333333333334" height="12.5" as="geometry"/>
        </mxCell>
        <mxCell id="zClbhPuZxZK9FAB6tKzK-29" value="+/-" style="text;html=1;strokeColor=none;fillColor=none;align=center;verticalAlign=middle;whiteSpace=wrap;rounded=0;fontSize=8;" vertex="1" parent="zClbhPuZxZK9FAB6tKzK-26">
          <mxGeometry x="35.5" width="8.333333333333334" height="12.5" as="geometry"/>
        </mxCell>
        <mxCell id="zClbhPuZxZK9FAB6tKzK-30" value="" style="group;fontSize=8;" vertex="1" connectable="0" parent="1">
          <mxGeometry x="390" y="271" width="130" height="20" as="geometry"/>
        </mxCell>
        <mxCell id="zClbhPuZxZK9FAB6tKzK-31" value="Register" style="rounded=0;whiteSpace=wrap;html=1;fontStyle=0" vertex="1" parent="zClbhPuZxZK9FAB6tKzK-30">
          <mxGeometry width="130" height="20" as="geometry"/>
        </mxCell>
        <mxCell id="zClbhPuZxZK9FAB6tKzK-32" value="MSB" style="text;html=1;strokeColor=#000000;fillColor=none;align=center;verticalAlign=middle;whiteSpace=wrap;rounded=0;perimeterSpacing=1;dashed=1;fontSize=6;" vertex="1" parent="zClbhPuZxZK9FAB6tKzK-30">
          <mxGeometry width="15.600000000000001" height="20" as="geometry"/>
        </mxCell>
        <mxCell id="zClbhPuZxZK9FAB6tKzK-33" value="LSB" style="text;html=1;strokeColor=#000000;fillColor=none;align=center;verticalAlign=middle;whiteSpace=wrap;rounded=0;perimeterSpacing=1;dashed=1;fontSize=6;" vertex="1" parent="zClbhPuZxZK9FAB6tKzK-30">
          <mxGeometry x="114.4" width="15.600000000000001" height="20" as="geometry"/>
        </mxCell>
        <mxCell id="zClbhPuZxZK9FAB6tKzK-34" style="rounded=0;orthogonalLoop=1;jettySize=auto;html=1;fontSize=6;" edge="1" parent="1" source="zClbhPuZxZK9FAB6tKzK-27" target="zClbhPuZxZK9FAB6tKzK-31">
          <mxGeometry relative="1" as="geometry"/>
        </mxCell>
        <mxCell id="zClbhPuZxZK9FAB6tKzK-38" style="edgeStyle=none;rounded=0;orthogonalLoop=1;jettySize=auto;html=1;fontSize=12;" edge="1" parent="1" source="zClbhPuZxZK9FAB6tKzK-37" target="zClbhPuZxZK9FAB6tKzK-27">
          <mxGeometry relative="1" as="geometry"/>
        </mxCell>
        <mxCell id="zClbhPuZxZK9FAB6tKzK-37" value="sgn(y)" style="text;html=1;strokeColor=none;fillColor=none;align=center;verticalAlign=middle;whiteSpace=wrap;rounded=0;fontSize=12;" vertex="1" parent="1">
          <mxGeometry x="510" y="175" width="40" height="20" as="geometry"/>
        </mxCell>
        <mxCell id="zClbhPuZxZK9FAB6tKzK-42" style="edgeStyle=none;rounded=0;orthogonalLoop=1;jettySize=auto;html=1;fontSize=12;" edge="1" parent="1" source="zClbhPuZxZK9FAB6tKzK-39" target="zClbhPuZxZK9FAB6tKzK-10">
          <mxGeometry relative="1" as="geometry"/>
        </mxCell>
        <mxCell id="zClbhPuZxZK9FAB6tKzK-39" value="sgn(y)" style="text;html=1;strokeColor=none;fillColor=none;align=center;verticalAlign=middle;whiteSpace=wrap;rounded=0;fontSize=12;" vertex="1" parent="1">
          <mxGeometry x="330" y="205" width="40" height="20" as="geometry"/>
        </mxCell>
        <mxCell id="zClbhPuZxZK9FAB6tKzK-41" style="edgeStyle=none;rounded=0;orthogonalLoop=1;jettySize=auto;html=1;fontSize=12;" edge="1" parent="1" source="zClbhPuZxZK9FAB6tKzK-40" target="zClbhPuZxZK9FAB6tKzK-5">
          <mxGeometry relative="1" as="geometry"/>
        </mxCell>
        <mxCell id="zClbhPuZxZK9FAB6tKzK-40" value="sgn(y)" style="text;html=1;strokeColor=none;fillColor=none;align=center;verticalAlign=middle;whiteSpace=wrap;rounded=0;fontSize=12;" vertex="1" parent="1">
          <mxGeometry x="193.32999999999998" y="205" width="40" height="20" as="geometry"/>
        </mxCell>
        <mxCell id="zClbhPuZxZK9FAB6tKzK-47" style="edgeStyle=none;rounded=0;orthogonalLoop=1;jettySize=auto;html=1;fontSize=12;" edge="1" parent="1" source="zClbhPuZxZK9FAB6tKzK-5" target="zClbhPuZxZK9FAB6tKzK-14">
          <mxGeometry relative="1" as="geometry"/>
        </mxCell>
        <mxCell id="zClbhPuZxZK9FAB6tKzK-48" style="edgeStyle=none;rounded=0;orthogonalLoop=1;jettySize=auto;html=1;fontSize=12;" edge="1" parent="1" source="zClbhPuZxZK9FAB6tKzK-10" target="zClbhPuZxZK9FAB6tKzK-18">
          <mxGeometry relative="1" as="geometry"/>
        </mxCell>
        <mxCell id="zClbhPuZxZK9FAB6tKzK-49" value="" style="endArrow=classic;html=1;fontSize=12;startArrow=oval;startFill=1;edgeStyle=elbowEdgeStyle;entryX=0.5;entryY=0;entryDx=0;entryDy=0;" edge="1" parent="1" target="zClbhPuZxZK9FAB6tKzK-1">
          <mxGeometry width="50" height="50" relative="1" as="geometry">
            <mxPoint x="126" y="120" as="sourcePoint"/>
            <mxPoint x="251.6410256410257" y="145.8974358974359" as="targetPoint"/>
            <Array as="points">
              <mxPoint x="270" y="130"/>
            </Array>
          </mxGeometry>
        </mxCell>
        <mxCell id="zClbhPuZxZK9FAB6tKzK-50" value="" style="endArrow=classic;html=1;fontSize=12;startArrow=oval;startFill=1;edgeStyle=elbowEdgeStyle;" edge="1" parent="1" target="zClbhPuZxZK9FAB6tKzK-2">
          <mxGeometry width="50" height="50" relative="1" as="geometry">
            <mxPoint x="303" y="106" as="sourcePoint"/>
            <mxPoint x="183.00000000000006" y="146" as="targetPoint"/>
            <Array as="points">
              <mxPoint x="170" y="120"/>
              <mxPoint x="160" y="130"/>
            </Array>
          </mxGeometry>
        </mxCell>
        <mxCell id="zClbhPuZxZK9FAB6tKzK-51" style="edgeStyle=none;rounded=0;orthogonalLoop=1;jettySize=auto;html=1;fontSize=12;entryX=0.2;entryY=-0.047;entryDx=0;entryDy=0;entryPerimeter=0;" edge="1" parent="1" source="zClbhPuZxZK9FAB6tKzK-52" target="zClbhPuZxZK9FAB6tKzK-62">
          <mxGeometry relative="1" as="geometry">
            <mxPoint x="250" y="424" as="targetPoint"/>
          </mxGeometry>
        </mxCell>
        <mxCell id="zClbhPuZxZK9FAB6tKzK-52" value="&amp;gt;&amp;gt; 1" style="shape=parallelogram;perimeter=parallelogramPerimeter;whiteSpace=wrap;html=1;fontSize=10;" vertex="1" parent="1">
          <mxGeometry x="250" y="384" width="40" height="20" as="geometry"/>
        </mxCell>
        <mxCell id="zClbhPuZxZK9FAB6tKzK-53" style="edgeStyle=none;rounded=0;orthogonalLoop=1;jettySize=auto;html=1;entryX=0.848;entryY=-0.02;entryDx=0;entryDy=0;entryPerimeter=0;fontSize=12;" edge="1" parent="1" source="zClbhPuZxZK9FAB6tKzK-54" target="zClbhPuZxZK9FAB6tKzK-57">
          <mxGeometry relative="1" as="geometry"/>
        </mxCell>
        <mxCell id="zClbhPuZxZK9FAB6tKzK-54" value="&amp;gt;&amp;gt; 1" style="shape=parallelogram;perimeter=parallelogramPerimeter;whiteSpace=wrap;html=1;fontSize=10;" vertex="1" parent="1">
          <mxGeometry x="144" y="384" width="40" height="20" as="geometry"/>
        </mxCell>
        <mxCell id="zClbhPuZxZK9FAB6tKzK-55" value="" style="group" vertex="1" connectable="0" parent="1">
          <mxGeometry x="120" y="434" width="50" height="50" as="geometry"/>
        </mxCell>
        <mxCell id="zClbhPuZxZK9FAB6tKzK-56" value="" style="group;fontSize=8;" vertex="1" connectable="0" parent="zClbhPuZxZK9FAB6tKzK-55">
          <mxGeometry width="50" height="50" as="geometry"/>
        </mxCell>
        <mxCell id="zClbhPuZxZK9FAB6tKzK-57" value="" style="verticalLabelPosition=bottom;shadow=0;dashed=0;align=center;html=1;verticalAlign=top;shape=stencil(rVbBcoMgEP0arxmVMu21Q9NjLjnkTJTGbRQcpEn796Ws1Zo0yhBmnHF4u7y3D1wkIayreCuSPOVdKwqTkJckz09cA9/XFs5tpEKQpjiUvBGI7ECWIA8WY0pKOxuUxJzOaHUUZyhNPxlkJTQYjJ4Ry1LHSNZJ+mzR8SGsGPi6f+JXuVaOgzST4jao1VrZRhihEe09fPajFcXx19/oa6jkNkAyu09y5yM59dgXECy59pDM4kpuvGyusoeL7RyQ8C0NVX6i93r2WedRJ6bnUOVlz4TZ6HxzE7bnxfGg1Ycs53lm8wh7U1os0AypUNd4ZPksWw1SvCuwR13qXs49Cvmte8t/jsXZpOmERp3EzX72Er12MPKR2IR0ShiB8TF2if2/JyLjRYk0+r4EMRa16jw+6t90m+nxcdpLw2KzOK4bLehieO9w8Dc=);" vertex="1" parent="zClbhPuZxZK9FAB6tKzK-56">
          <mxGeometry width="50" height="50" as="geometry"/>
        </mxCell>
        <mxCell id="zClbhPuZxZK9FAB6tKzK-58" value="+" style="text;html=1;strokeColor=none;fillColor=none;align=center;verticalAlign=middle;whiteSpace=wrap;rounded=0;fontSize=8;" vertex="1" parent="zClbhPuZxZK9FAB6tKzK-56">
          <mxGeometry x="6.166666666666667" width="8.333333333333334" height="12.5" as="geometry"/>
        </mxCell>
        <mxCell id="zClbhPuZxZK9FAB6tKzK-59" value="+/-" style="text;html=1;strokeColor=none;fillColor=none;align=center;verticalAlign=middle;whiteSpace=wrap;rounded=0;fontSize=8;" vertex="1" parent="zClbhPuZxZK9FAB6tKzK-56">
          <mxGeometry x="35.5" width="8.333333333333334" height="12.5" as="geometry"/>
        </mxCell>
        <mxCell id="zClbhPuZxZK9FAB6tKzK-60" value="" style="group" vertex="1" connectable="0" parent="1">
          <mxGeometry x="260" y="434" width="50" height="50" as="geometry"/>
        </mxCell>
        <mxCell id="zClbhPuZxZK9FAB6tKzK-61" value="" style="group;fontSize=8;" vertex="1" connectable="0" parent="zClbhPuZxZK9FAB6tKzK-60">
          <mxGeometry width="50" height="50" as="geometry"/>
        </mxCell>
        <mxCell id="zClbhPuZxZK9FAB6tKzK-62" value="" style="verticalLabelPosition=bottom;shadow=0;dashed=0;align=center;html=1;verticalAlign=top;shape=stencil(rVbBcoMgEP0arxmVMu21Q9NjLjnkTJTGbRQcpEn796Ws1Zo0yhBmnHF4u7y3D1wkIayreCuSPOVdKwqTkJckz09cA9/XFs5tpEKQpjiUvBGI7ECWIA8WY0pKOxuUxJzOaHUUZyhNPxlkJTQYjJ4Ry1LHSNZJ+mzR8SGsGPi6f+JXuVaOgzST4jao1VrZRhihEe09fPajFcXx19/oa6jkNkAyu09y5yM59dgXECy59pDM4kpuvGyusoeL7RyQ8C0NVX6i93r2WedRJ6bnUOVlz4TZ6HxzE7bnxfGg1Ycs53lm8wh7U1os0AypUNd4ZPksWw1SvCuwR13qXs49Cvmte8t/jsXZpOmERp3EzX72Er12MPKR2IR0ShiB8TF2if2/JyLjRYk0+r4EMRa16jw+6t90m+nxcdpLw2KzOK4bLehieO9w8Dc=);" vertex="1" parent="zClbhPuZxZK9FAB6tKzK-61">
          <mxGeometry width="50" height="50" as="geometry"/>
        </mxCell>
        <mxCell id="zClbhPuZxZK9FAB6tKzK-63" value="+" style="text;html=1;strokeColor=none;fillColor=none;align=center;verticalAlign=middle;whiteSpace=wrap;rounded=0;fontSize=8;" vertex="1" parent="zClbhPuZxZK9FAB6tKzK-61">
          <mxGeometry x="6.166666666666667" width="8.333333333333334" height="12.5" as="geometry"/>
        </mxCell>
        <mxCell id="zClbhPuZxZK9FAB6tKzK-64" value="+/-" style="text;html=1;strokeColor=none;fillColor=none;align=center;verticalAlign=middle;whiteSpace=wrap;rounded=0;fontSize=8;" vertex="1" parent="zClbhPuZxZK9FAB6tKzK-61">
          <mxGeometry x="35.5" width="8.333333333333334" height="12.5" as="geometry"/>
        </mxCell>
        <mxCell id="zClbhPuZxZK9FAB6tKzK-65" value="" style="group;fontSize=8;" vertex="1" connectable="0" parent="1">
          <mxGeometry x="80" y="514" width="130" height="20" as="geometry"/>
        </mxCell>
        <mxCell id="zClbhPuZxZK9FAB6tKzK-66" value="Register" style="rounded=0;whiteSpace=wrap;html=1;fontStyle=0" vertex="1" parent="zClbhPuZxZK9FAB6tKzK-65">
          <mxGeometry width="130" height="20" as="geometry"/>
        </mxCell>
        <mxCell id="zClbhPuZxZK9FAB6tKzK-67" value="MSB" style="text;html=1;strokeColor=#000000;fillColor=none;align=center;verticalAlign=middle;whiteSpace=wrap;rounded=0;perimeterSpacing=1;dashed=1;fontSize=6;" vertex="1" parent="zClbhPuZxZK9FAB6tKzK-65">
          <mxGeometry width="15.600000000000001" height="20" as="geometry"/>
        </mxCell>
        <mxCell id="zClbhPuZxZK9FAB6tKzK-68" value="LSB" style="text;html=1;strokeColor=#000000;fillColor=none;align=center;verticalAlign=middle;whiteSpace=wrap;rounded=0;perimeterSpacing=1;dashed=1;fontSize=6;" vertex="1" parent="zClbhPuZxZK9FAB6tKzK-65">
          <mxGeometry x="114.4" width="15.600000000000001" height="20" as="geometry"/>
        </mxCell>
        <mxCell id="zClbhPuZxZK9FAB6tKzK-69" value="" style="group;fontSize=8;" vertex="1" connectable="0" parent="1">
          <mxGeometry x="220" y="514" width="130" height="20" as="geometry"/>
        </mxCell>
        <mxCell id="zClbhPuZxZK9FAB6tKzK-70" value="Register" style="rounded=0;whiteSpace=wrap;html=1;fontStyle=0" vertex="1" parent="zClbhPuZxZK9FAB6tKzK-69">
          <mxGeometry width="130" height="20" as="geometry"/>
        </mxCell>
        <mxCell id="zClbhPuZxZK9FAB6tKzK-71" value="MSB" style="text;html=1;strokeColor=#000000;fillColor=none;align=center;verticalAlign=middle;whiteSpace=wrap;rounded=0;perimeterSpacing=1;dashed=1;fontSize=6;" vertex="1" parent="zClbhPuZxZK9FAB6tKzK-69">
          <mxGeometry width="15.600000000000001" height="20" as="geometry"/>
        </mxCell>
        <mxCell id="zClbhPuZxZK9FAB6tKzK-72" value="LSB" style="text;html=1;strokeColor=#000000;fillColor=none;align=center;verticalAlign=middle;whiteSpace=wrap;rounded=0;perimeterSpacing=1;dashed=1;fontSize=6;" vertex="1" parent="zClbhPuZxZK9FAB6tKzK-69">
          <mxGeometry x="114.4" width="15.600000000000001" height="20" as="geometry"/>
        </mxCell>
        <mxCell id="zClbhPuZxZK9FAB6tKzK-73" style="edgeStyle=none;rounded=0;orthogonalLoop=1;jettySize=auto;html=1;entryX=0.1;entryY=-0.009;entryDx=0;entryDy=0;entryPerimeter=0;fontSize=12;" edge="1" parent="1" source="zClbhPuZxZK9FAB6tKzK-74" target="zClbhPuZxZK9FAB6tKzK-57">
          <mxGeometry relative="1" as="geometry"/>
        </mxCell>
        <mxCell id="zClbhPuZxZK9FAB6tKzK-74" value="&lt;font style=&quot;font-size: 12px&quot;&gt;x&lt;sub&gt;&lt;span style=&quot;font-size: 12px&quot;&gt;1&lt;/span&gt;&lt;/sub&gt;&lt;/font&gt;" style="text;html=1;align=center;verticalAlign=middle;resizable=0;points=[];autosize=1;fontSize=12;" vertex="1" parent="1">
          <mxGeometry x="111" y="320" width="30" height="20" as="geometry"/>
        </mxCell>
        <mxCell id="zClbhPuZxZK9FAB6tKzK-75" style="edgeStyle=none;rounded=0;orthogonalLoop=1;jettySize=auto;html=1;entryX=0.847;entryY=-0.047;entryDx=0;entryDy=0;entryPerimeter=0;fontSize=12;" edge="1" parent="1" source="zClbhPuZxZK9FAB6tKzK-76" target="zClbhPuZxZK9FAB6tKzK-62">
          <mxGeometry relative="1" as="geometry"/>
        </mxCell>
        <mxCell id="zClbhPuZxZK9FAB6tKzK-76" value="&lt;font style=&quot;font-size: 12px&quot;&gt;y&lt;sub&gt;1&lt;/sub&gt;&lt;/font&gt;" style="text;html=1;align=center;verticalAlign=middle;resizable=0;points=[];autosize=1;fontSize=12;" vertex="1" parent="1">
          <mxGeometry x="288" y="320" width="30" height="20" as="geometry"/>
        </mxCell>
        <mxCell id="zClbhPuZxZK9FAB6tKzK-77" style="edgeStyle=none;rounded=0;orthogonalLoop=1;jettySize=auto;html=1;entryX=0.18;entryY=-0.032;entryDx=0;entryDy=0;entryPerimeter=0;fontSize=6;" edge="1" parent="1" source="zClbhPuZxZK9FAB6tKzK-78" target="zClbhPuZxZK9FAB6tKzK-83">
          <mxGeometry relative="1" as="geometry"/>
        </mxCell>
        <mxCell id="zClbhPuZxZK9FAB6tKzK-78" value="&lt;font style=&quot;font-size: 12px&quot;&gt;z&lt;sub&gt;1&lt;/sub&gt;&lt;/font&gt;" style="text;html=1;align=center;verticalAlign=middle;resizable=0;points=[];autosize=1;fontSize=12;" vertex="1" parent="1">
          <mxGeometry x="425.43" y="320" width="30" height="20" as="geometry"/>
        </mxCell>
        <mxCell id="zClbhPuZxZK9FAB6tKzK-79" style="edgeStyle=none;rounded=0;orthogonalLoop=1;jettySize=auto;html=1;fontSize=6;entryX=0.869;entryY=-0.027;entryDx=0;entryDy=0;entryPerimeter=0;exitX=0.224;exitY=0.947;exitDx=0;exitDy=0;exitPerimeter=0;" edge="1" parent="1" source="zClbhPuZxZK9FAB6tKzK-80" target="zClbhPuZxZK9FAB6tKzK-83">
          <mxGeometry relative="1" as="geometry">
            <mxPoint x="481.43" y="425" as="targetPoint"/>
          </mxGeometry>
        </mxCell>
        <mxCell id="zClbhPuZxZK9FAB6tKzK-80" value="&lt;font style=&quot;font-size: 10px&quot;&gt;arctan(2&lt;sup&gt;-1&lt;/sup&gt;)&lt;/font&gt;" style="rounded=0;whiteSpace=wrap;html=1;fontSize=6;" vertex="1" parent="1">
          <mxGeometry x="461.43" y="340" width="60" height="20" as="geometry"/>
        </mxCell>
        <mxCell id="zClbhPuZxZK9FAB6tKzK-81" value="" style="group" vertex="1" connectable="0" parent="1">
          <mxGeometry x="431.43" y="404" width="50" height="50" as="geometry"/>
        </mxCell>
        <mxCell id="zClbhPuZxZK9FAB6tKzK-82" value="" style="group;fontSize=8;" vertex="1" connectable="0" parent="zClbhPuZxZK9FAB6tKzK-81">
          <mxGeometry width="50" height="50" as="geometry"/>
        </mxCell>
        <mxCell id="zClbhPuZxZK9FAB6tKzK-83" value="" style="verticalLabelPosition=bottom;shadow=0;dashed=0;align=center;html=1;verticalAlign=top;shape=stencil(rVbBcoMgEP0arxmVMu21Q9NjLjnkTJTGbRQcpEn796Ws1Zo0yhBmnHF4u7y3D1wkIayreCuSPOVdKwqTkJckz09cA9/XFs5tpEKQpjiUvBGI7ECWIA8WY0pKOxuUxJzOaHUUZyhNPxlkJTQYjJ4Ry1LHSNZJ+mzR8SGsGPi6f+JXuVaOgzST4jao1VrZRhihEe09fPajFcXx19/oa6jkNkAyu09y5yM59dgXECy59pDM4kpuvGyusoeL7RyQ8C0NVX6i93r2WedRJ6bnUOVlz4TZ6HxzE7bnxfGg1Ycs53lm8wh7U1os0AypUNd4ZPksWw1SvCuwR13qXs49Cvmte8t/jsXZpOmERp3EzX72Er12MPKR2IR0ShiB8TF2if2/JyLjRYk0+r4EMRa16jw+6t90m+nxcdpLw2KzOK4bLehieO9w8Dc=);" vertex="1" parent="zClbhPuZxZK9FAB6tKzK-82">
          <mxGeometry width="50" height="50" as="geometry"/>
        </mxCell>
        <mxCell id="zClbhPuZxZK9FAB6tKzK-84" value="+" style="text;html=1;strokeColor=none;fillColor=none;align=center;verticalAlign=middle;whiteSpace=wrap;rounded=0;fontSize=8;" vertex="1" parent="zClbhPuZxZK9FAB6tKzK-82">
          <mxGeometry x="6.166666666666667" width="8.333333333333334" height="12.5" as="geometry"/>
        </mxCell>
        <mxCell id="zClbhPuZxZK9FAB6tKzK-85" value="+/-" style="text;html=1;strokeColor=none;fillColor=none;align=center;verticalAlign=middle;whiteSpace=wrap;rounded=0;fontSize=8;" vertex="1" parent="zClbhPuZxZK9FAB6tKzK-82">
          <mxGeometry x="35.5" width="8.333333333333334" height="12.5" as="geometry"/>
        </mxCell>
        <mxCell id="zClbhPuZxZK9FAB6tKzK-86" value="" style="group;fontSize=8;" vertex="1" connectable="0" parent="1">
          <mxGeometry x="390" y="515" width="130" height="20" as="geometry"/>
        </mxCell>
        <mxCell id="zClbhPuZxZK9FAB6tKzK-87" value="Register" style="rounded=0;whiteSpace=wrap;html=1;fontStyle=0" vertex="1" parent="zClbhPuZxZK9FAB6tKzK-86">
          <mxGeometry width="130" height="20" as="geometry"/>
        </mxCell>
        <mxCell id="zClbhPuZxZK9FAB6tKzK-88" value="MSB" style="text;html=1;strokeColor=#000000;fillColor=none;align=center;verticalAlign=middle;whiteSpace=wrap;rounded=0;perimeterSpacing=1;dashed=1;fontSize=6;" vertex="1" parent="zClbhPuZxZK9FAB6tKzK-86">
          <mxGeometry width="15.600000000000001" height="20" as="geometry"/>
        </mxCell>
        <mxCell id="zClbhPuZxZK9FAB6tKzK-89" value="LSB" style="text;html=1;strokeColor=#000000;fillColor=none;align=center;verticalAlign=middle;whiteSpace=wrap;rounded=0;perimeterSpacing=1;dashed=1;fontSize=6;" vertex="1" parent="zClbhPuZxZK9FAB6tKzK-86">
          <mxGeometry x="114.4" width="15.600000000000001" height="20" as="geometry"/>
        </mxCell>
        <mxCell id="zClbhPuZxZK9FAB6tKzK-90" style="rounded=0;orthogonalLoop=1;jettySize=auto;html=1;fontSize=6;" edge="1" parent="1" source="zClbhPuZxZK9FAB6tKzK-83" target="zClbhPuZxZK9FAB6tKzK-87">
          <mxGeometry relative="1" as="geometry"/>
        </mxCell>
        <mxCell id="zClbhPuZxZK9FAB6tKzK-91" style="edgeStyle=none;rounded=0;orthogonalLoop=1;jettySize=auto;html=1;fontSize=12;" edge="1" parent="1" source="zClbhPuZxZK9FAB6tKzK-92" target="zClbhPuZxZK9FAB6tKzK-83">
          <mxGeometry relative="1" as="geometry"/>
        </mxCell>
        <mxCell id="zClbhPuZxZK9FAB6tKzK-92" value="sgn(y)" style="text;html=1;strokeColor=none;fillColor=none;align=center;verticalAlign=middle;whiteSpace=wrap;rounded=0;fontSize=12;" vertex="1" parent="1">
          <mxGeometry x="510" y="419" width="40" height="20" as="geometry"/>
        </mxCell>
        <mxCell id="zClbhPuZxZK9FAB6tKzK-93" style="edgeStyle=none;rounded=0;orthogonalLoop=1;jettySize=auto;html=1;fontSize=12;" edge="1" parent="1" source="zClbhPuZxZK9FAB6tKzK-94" target="zClbhPuZxZK9FAB6tKzK-62">
          <mxGeometry relative="1" as="geometry"/>
        </mxCell>
        <mxCell id="zClbhPuZxZK9FAB6tKzK-94" value="sgn(y)" style="text;html=1;strokeColor=none;fillColor=none;align=center;verticalAlign=middle;whiteSpace=wrap;rounded=0;fontSize=12;" vertex="1" parent="1">
          <mxGeometry x="330" y="449" width="40" height="20" as="geometry"/>
        </mxCell>
        <mxCell id="zClbhPuZxZK9FAB6tKzK-95" style="edgeStyle=none;rounded=0;orthogonalLoop=1;jettySize=auto;html=1;fontSize=12;" edge="1" parent="1" source="zClbhPuZxZK9FAB6tKzK-96" target="zClbhPuZxZK9FAB6tKzK-57">
          <mxGeometry relative="1" as="geometry"/>
        </mxCell>
        <mxCell id="zClbhPuZxZK9FAB6tKzK-96" value="sgn(y)" style="text;html=1;strokeColor=none;fillColor=none;align=center;verticalAlign=middle;whiteSpace=wrap;rounded=0;fontSize=12;" vertex="1" parent="1">
          <mxGeometry x="193.32999999999998" y="449" width="40" height="20" as="geometry"/>
        </mxCell>
        <mxCell id="zClbhPuZxZK9FAB6tKzK-97" style="edgeStyle=none;rounded=0;orthogonalLoop=1;jettySize=auto;html=1;fontSize=12;" edge="1" parent="1" source="zClbhPuZxZK9FAB6tKzK-57" target="zClbhPuZxZK9FAB6tKzK-66">
          <mxGeometry relative="1" as="geometry"/>
        </mxCell>
        <mxCell id="zClbhPuZxZK9FAB6tKzK-98" style="edgeStyle=none;rounded=0;orthogonalLoop=1;jettySize=auto;html=1;fontSize=12;" edge="1" parent="1" source="zClbhPuZxZK9FAB6tKzK-62" target="zClbhPuZxZK9FAB6tKzK-70">
          <mxGeometry relative="1" as="geometry"/>
        </mxCell>
        <mxCell id="zClbhPuZxZK9FAB6tKzK-99" value="" style="endArrow=classic;html=1;fontSize=12;startArrow=oval;startFill=1;edgeStyle=elbowEdgeStyle;entryX=0.5;entryY=0;entryDx=0;entryDy=0;" edge="1" parent="1" target="zClbhPuZxZK9FAB6tKzK-52">
          <mxGeometry width="50" height="50" relative="1" as="geometry">
            <mxPoint x="126" y="364" as="sourcePoint"/>
            <mxPoint x="251.6410256410257" y="389.8974358974359" as="targetPoint"/>
            <Array as="points">
              <mxPoint x="270" y="374"/>
            </Array>
          </mxGeometry>
        </mxCell>
        <mxCell id="zClbhPuZxZK9FAB6tKzK-100" value="" style="endArrow=classic;html=1;fontSize=12;startArrow=oval;startFill=1;edgeStyle=elbowEdgeStyle;" edge="1" parent="1" target="zClbhPuZxZK9FAB6tKzK-54">
          <mxGeometry width="50" height="50" relative="1" as="geometry">
            <mxPoint x="303" y="350" as="sourcePoint"/>
            <mxPoint x="183.00000000000006" y="390" as="targetPoint"/>
            <Array as="points">
              <mxPoint x="170" y="364"/>
              <mxPoint x="160" y="374"/>
            </Array>
          </mxGeometry>
        </mxCell>
        <mxCell id="zClbhPuZxZK9FAB6tKzK-101" style="edgeStyle=elbowEdgeStyle;rounded=0;orthogonalLoop=1;jettySize=auto;html=1;startArrow=none;startFill=0;fontSize=12;endArrow=none;endFill=0;" edge="1" parent="1" source="zClbhPuZxZK9FAB6tKzK-14" target="zClbhPuZxZK9FAB6tKzK-74">
          <mxGeometry relative="1" as="geometry"/>
        </mxCell>
        <mxCell id="zClbhPuZxZK9FAB6tKzK-102" style="edgeStyle=elbowEdgeStyle;rounded=0;orthogonalLoop=1;jettySize=auto;html=1;startArrow=none;startFill=0;endArrow=none;endFill=0;fontSize=12;" edge="1" parent="1" source="zClbhPuZxZK9FAB6tKzK-18" target="zClbhPuZxZK9FAB6tKzK-76">
          <mxGeometry relative="1" as="geometry"/>
        </mxCell>
        <mxCell id="zClbhPuZxZK9FAB6tKzK-103" style="edgeStyle=elbowEdgeStyle;rounded=0;orthogonalLoop=1;jettySize=auto;html=1;startArrow=none;startFill=0;endArrow=none;endFill=0;fontSize=12;" edge="1" parent="1" source="zClbhPuZxZK9FAB6tKzK-31" target="zClbhPuZxZK9FAB6tKzK-78">
          <mxGeometry relative="1" as="geometry"/>
        </mxCell>
        <mxCell id="zClbhPuZxZK9FAB6tKzK-104" style="edgeStyle=none;rounded=0;orthogonalLoop=1;jettySize=auto;html=1;fontSize=12;entryX=0.2;entryY=-0.047;entryDx=0;entryDy=0;entryPerimeter=0;" edge="1" parent="1" source="zClbhPuZxZK9FAB6tKzK-105" target="zClbhPuZxZK9FAB6tKzK-115">
          <mxGeometry relative="1" as="geometry">
            <mxPoint x="250" y="674" as="targetPoint"/>
          </mxGeometry>
        </mxCell>
        <mxCell id="zClbhPuZxZK9FAB6tKzK-105" value="&amp;gt;&amp;gt; n-1" style="shape=parallelogram;perimeter=parallelogramPerimeter;whiteSpace=wrap;html=1;fontSize=10;" vertex="1" parent="1">
          <mxGeometry x="240" y="634" width="60" height="20" as="geometry"/>
        </mxCell>
        <mxCell id="zClbhPuZxZK9FAB6tKzK-106" style="edgeStyle=none;rounded=0;orthogonalLoop=1;jettySize=auto;html=1;entryX=0.848;entryY=-0.02;entryDx=0;entryDy=0;entryPerimeter=0;fontSize=12;" edge="1" parent="1" source="zClbhPuZxZK9FAB6tKzK-107" target="zClbhPuZxZK9FAB6tKzK-110">
          <mxGeometry relative="1" as="geometry"/>
        </mxCell>
        <mxCell id="zClbhPuZxZK9FAB6tKzK-107" value="&amp;gt;&amp;gt; n-1" style="shape=parallelogram;perimeter=parallelogramPerimeter;whiteSpace=wrap;html=1;fontSize=10;" vertex="1" parent="1">
          <mxGeometry x="135" y="634" width="56" height="20" as="geometry"/>
        </mxCell>
        <mxCell id="zClbhPuZxZK9FAB6tKzK-108" value="" style="group" vertex="1" connectable="0" parent="1">
          <mxGeometry x="120" y="684" width="50" height="50" as="geometry"/>
        </mxCell>
        <mxCell id="zClbhPuZxZK9FAB6tKzK-109" value="" style="group;fontSize=8;" vertex="1" connectable="0" parent="zClbhPuZxZK9FAB6tKzK-108">
          <mxGeometry width="50" height="50" as="geometry"/>
        </mxCell>
        <mxCell id="zClbhPuZxZK9FAB6tKzK-110" value="" style="verticalLabelPosition=bottom;shadow=0;dashed=0;align=center;html=1;verticalAlign=top;shape=stencil(rVbBcoMgEP0arxmVMu21Q9NjLjnkTJTGbRQcpEn796Ws1Zo0yhBmnHF4u7y3D1wkIayreCuSPOVdKwqTkJckz09cA9/XFs5tpEKQpjiUvBGI7ECWIA8WY0pKOxuUxJzOaHUUZyhNPxlkJTQYjJ4Ry1LHSNZJ+mzR8SGsGPi6f+JXuVaOgzST4jao1VrZRhihEe09fPajFcXx19/oa6jkNkAyu09y5yM59dgXECy59pDM4kpuvGyusoeL7RyQ8C0NVX6i93r2WedRJ6bnUOVlz4TZ6HxzE7bnxfGg1Ycs53lm8wh7U1os0AypUNd4ZPksWw1SvCuwR13qXs49Cvmte8t/jsXZpOmERp3EzX72Er12MPKR2IR0ShiB8TF2if2/JyLjRYk0+r4EMRa16jw+6t90m+nxcdpLw2KzOK4bLehieO9w8Dc=);" vertex="1" parent="zClbhPuZxZK9FAB6tKzK-109">
          <mxGeometry width="50" height="50" as="geometry"/>
        </mxCell>
        <mxCell id="zClbhPuZxZK9FAB6tKzK-111" value="+" style="text;html=1;strokeColor=none;fillColor=none;align=center;verticalAlign=middle;whiteSpace=wrap;rounded=0;fontSize=8;" vertex="1" parent="zClbhPuZxZK9FAB6tKzK-109">
          <mxGeometry x="6.166666666666667" width="8.333333333333334" height="12.5" as="geometry"/>
        </mxCell>
        <mxCell id="zClbhPuZxZK9FAB6tKzK-112" value="+/-" style="text;html=1;strokeColor=none;fillColor=none;align=center;verticalAlign=middle;whiteSpace=wrap;rounded=0;fontSize=8;" vertex="1" parent="zClbhPuZxZK9FAB6tKzK-109">
          <mxGeometry x="35.5" width="8.333333333333334" height="12.5" as="geometry"/>
        </mxCell>
        <mxCell id="zClbhPuZxZK9FAB6tKzK-113" value="" style="group" vertex="1" connectable="0" parent="1">
          <mxGeometry x="260" y="684" width="50" height="50" as="geometry"/>
        </mxCell>
        <mxCell id="zClbhPuZxZK9FAB6tKzK-114" value="" style="group;fontSize=8;" vertex="1" connectable="0" parent="zClbhPuZxZK9FAB6tKzK-113">
          <mxGeometry width="50" height="50" as="geometry"/>
        </mxCell>
        <mxCell id="zClbhPuZxZK9FAB6tKzK-115" value="" style="verticalLabelPosition=bottom;shadow=0;dashed=0;align=center;html=1;verticalAlign=top;shape=stencil(rVbBcoMgEP0arxmVMu21Q9NjLjnkTJTGbRQcpEn796Ws1Zo0yhBmnHF4u7y3D1wkIayreCuSPOVdKwqTkJckz09cA9/XFs5tpEKQpjiUvBGI7ECWIA8WY0pKOxuUxJzOaHUUZyhNPxlkJTQYjJ4Ry1LHSNZJ+mzR8SGsGPi6f+JXuVaOgzST4jao1VrZRhihEe09fPajFcXx19/oa6jkNkAyu09y5yM59dgXECy59pDM4kpuvGyusoeL7RyQ8C0NVX6i93r2WedRJ6bnUOVlz4TZ6HxzE7bnxfGg1Ycs53lm8wh7U1os0AypUNd4ZPksWw1SvCuwR13qXs49Cvmte8t/jsXZpOmERp3EzX72Er12MPKR2IR0ShiB8TF2if2/JyLjRYk0+r4EMRa16jw+6t90m+nxcdpLw2KzOK4bLehieO9w8Dc=);" vertex="1" parent="zClbhPuZxZK9FAB6tKzK-114">
          <mxGeometry width="50" height="50" as="geometry"/>
        </mxCell>
        <mxCell id="zClbhPuZxZK9FAB6tKzK-116" value="+" style="text;html=1;strokeColor=none;fillColor=none;align=center;verticalAlign=middle;whiteSpace=wrap;rounded=0;fontSize=8;" vertex="1" parent="zClbhPuZxZK9FAB6tKzK-114">
          <mxGeometry x="6.166666666666667" width="8.333333333333334" height="12.5" as="geometry"/>
        </mxCell>
        <mxCell id="zClbhPuZxZK9FAB6tKzK-117" value="+/-" style="text;html=1;strokeColor=none;fillColor=none;align=center;verticalAlign=middle;whiteSpace=wrap;rounded=0;fontSize=8;" vertex="1" parent="zClbhPuZxZK9FAB6tKzK-114">
          <mxGeometry x="35.5" width="8.333333333333334" height="12.5" as="geometry"/>
        </mxCell>
        <mxCell id="zClbhPuZxZK9FAB6tKzK-118" value="" style="group;fontSize=8;" vertex="1" connectable="0" parent="1">
          <mxGeometry x="80" y="764" width="130" height="20" as="geometry"/>
        </mxCell>
        <mxCell id="zClbhPuZxZK9FAB6tKzK-119" value="Register" style="rounded=0;whiteSpace=wrap;html=1;fontStyle=0" vertex="1" parent="zClbhPuZxZK9FAB6tKzK-118">
          <mxGeometry width="130" height="20" as="geometry"/>
        </mxCell>
        <mxCell id="zClbhPuZxZK9FAB6tKzK-120" value="MSB" style="text;html=1;strokeColor=#000000;fillColor=none;align=center;verticalAlign=middle;whiteSpace=wrap;rounded=0;perimeterSpacing=1;dashed=1;fontSize=6;" vertex="1" parent="zClbhPuZxZK9FAB6tKzK-118">
          <mxGeometry width="15.600000000000001" height="20" as="geometry"/>
        </mxCell>
        <mxCell id="zClbhPuZxZK9FAB6tKzK-121" value="LSB" style="text;html=1;strokeColor=#000000;fillColor=none;align=center;verticalAlign=middle;whiteSpace=wrap;rounded=0;perimeterSpacing=1;dashed=1;fontSize=6;" vertex="1" parent="zClbhPuZxZK9FAB6tKzK-118">
          <mxGeometry x="114.4" width="15.600000000000001" height="20" as="geometry"/>
        </mxCell>
        <mxCell id="zClbhPuZxZK9FAB6tKzK-122" value="" style="group;fontSize=8;" vertex="1" connectable="0" parent="1">
          <mxGeometry x="220" y="764" width="130" height="20" as="geometry"/>
        </mxCell>
        <mxCell id="zClbhPuZxZK9FAB6tKzK-123" value="Register" style="rounded=0;whiteSpace=wrap;html=1;fontStyle=0" vertex="1" parent="zClbhPuZxZK9FAB6tKzK-122">
          <mxGeometry width="130" height="20" as="geometry"/>
        </mxCell>
        <mxCell id="zClbhPuZxZK9FAB6tKzK-124" value="MSB" style="text;html=1;strokeColor=#000000;fillColor=none;align=center;verticalAlign=middle;whiteSpace=wrap;rounded=0;perimeterSpacing=1;dashed=1;fontSize=6;" vertex="1" parent="zClbhPuZxZK9FAB6tKzK-122">
          <mxGeometry width="15.600000000000001" height="20" as="geometry"/>
        </mxCell>
        <mxCell id="zClbhPuZxZK9FAB6tKzK-125" value="LSB" style="text;html=1;strokeColor=#000000;fillColor=none;align=center;verticalAlign=middle;whiteSpace=wrap;rounded=0;perimeterSpacing=1;dashed=1;fontSize=6;" vertex="1" parent="zClbhPuZxZK9FAB6tKzK-122">
          <mxGeometry x="114.4" width="15.600000000000001" height="20" as="geometry"/>
        </mxCell>
        <mxCell id="zClbhPuZxZK9FAB6tKzK-126" style="edgeStyle=none;rounded=0;orthogonalLoop=1;jettySize=auto;html=1;entryX=0.1;entryY=-0.009;entryDx=0;entryDy=0;entryPerimeter=0;fontSize=12;" edge="1" parent="1" source="zClbhPuZxZK9FAB6tKzK-127" target="zClbhPuZxZK9FAB6tKzK-110">
          <mxGeometry relative="1" as="geometry"/>
        </mxCell>
        <mxCell id="zClbhPuZxZK9FAB6tKzK-127" value="&lt;font style=&quot;font-size: 12px&quot;&gt;x&lt;sub&gt;n-1&lt;/sub&gt;&lt;/font&gt;" style="text;html=1;align=center;verticalAlign=middle;resizable=0;points=[];autosize=1;fontSize=12;" vertex="1" parent="1">
          <mxGeometry x="106" y="570" width="40" height="20" as="geometry"/>
        </mxCell>
        <mxCell id="zClbhPuZxZK9FAB6tKzK-128" style="edgeStyle=none;rounded=0;orthogonalLoop=1;jettySize=auto;html=1;entryX=0.847;entryY=-0.047;entryDx=0;entryDy=0;entryPerimeter=0;fontSize=12;" edge="1" parent="1" source="zClbhPuZxZK9FAB6tKzK-129" target="zClbhPuZxZK9FAB6tKzK-115">
          <mxGeometry relative="1" as="geometry"/>
        </mxCell>
        <mxCell id="zClbhPuZxZK9FAB6tKzK-129" value="&lt;font style=&quot;font-size: 12px&quot;&gt;y&lt;sub&gt;n-1&lt;/sub&gt;&lt;/font&gt;" style="text;html=1;align=center;verticalAlign=middle;resizable=0;points=[];autosize=1;fontSize=12;" vertex="1" parent="1">
          <mxGeometry x="283" y="570" width="40" height="20" as="geometry"/>
        </mxCell>
        <mxCell id="zClbhPuZxZK9FAB6tKzK-130" style="edgeStyle=none;rounded=0;orthogonalLoop=1;jettySize=auto;html=1;entryX=0.18;entryY=-0.032;entryDx=0;entryDy=0;entryPerimeter=0;fontSize=6;" edge="1" parent="1" source="zClbhPuZxZK9FAB6tKzK-131" target="zClbhPuZxZK9FAB6tKzK-136">
          <mxGeometry relative="1" as="geometry"/>
        </mxCell>
        <mxCell id="zClbhPuZxZK9FAB6tKzK-131" value="&lt;font style=&quot;font-size: 12px&quot;&gt;z&lt;sub&gt;n-1&lt;/sub&gt;&lt;/font&gt;" style="text;html=1;align=center;verticalAlign=middle;resizable=0;points=[];autosize=1;fontSize=12;" vertex="1" parent="1">
          <mxGeometry x="420.43" y="570" width="40" height="20" as="geometry"/>
        </mxCell>
        <mxCell id="zClbhPuZxZK9FAB6tKzK-132" style="edgeStyle=none;rounded=0;orthogonalLoop=1;jettySize=auto;html=1;fontSize=6;entryX=0.869;entryY=-0.027;entryDx=0;entryDy=0;entryPerimeter=0;exitX=0.224;exitY=0.947;exitDx=0;exitDy=0;exitPerimeter=0;" edge="1" parent="1" source="zClbhPuZxZK9FAB6tKzK-133" target="zClbhPuZxZK9FAB6tKzK-136">
          <mxGeometry relative="1" as="geometry">
            <mxPoint x="481.43" y="675" as="targetPoint"/>
          </mxGeometry>
        </mxCell>
        <mxCell id="zClbhPuZxZK9FAB6tKzK-133" value="&lt;font style=&quot;font-size: 10px&quot;&gt;arctan(2&lt;sup&gt;-n+1&lt;/sup&gt;)&lt;/font&gt;" style="rounded=0;whiteSpace=wrap;html=1;fontSize=6;" vertex="1" parent="1">
          <mxGeometry x="457.43" y="590" width="78.57" height="20" as="geometry"/>
        </mxCell>
        <mxCell id="zClbhPuZxZK9FAB6tKzK-134" value="" style="group" vertex="1" connectable="0" parent="1">
          <mxGeometry x="431.43" y="654" width="50" height="50" as="geometry"/>
        </mxCell>
        <mxCell id="zClbhPuZxZK9FAB6tKzK-135" value="" style="group;fontSize=8;" vertex="1" connectable="0" parent="zClbhPuZxZK9FAB6tKzK-134">
          <mxGeometry width="50" height="50" as="geometry"/>
        </mxCell>
        <mxCell id="zClbhPuZxZK9FAB6tKzK-136" value="" style="verticalLabelPosition=bottom;shadow=0;dashed=0;align=center;html=1;verticalAlign=top;shape=stencil(rVbBcoMgEP0arxmVMu21Q9NjLjnkTJTGbRQcpEn796Ws1Zo0yhBmnHF4u7y3D1wkIayreCuSPOVdKwqTkJckz09cA9/XFs5tpEKQpjiUvBGI7ECWIA8WY0pKOxuUxJzOaHUUZyhNPxlkJTQYjJ4Ry1LHSNZJ+mzR8SGsGPi6f+JXuVaOgzST4jao1VrZRhihEe09fPajFcXx19/oa6jkNkAyu09y5yM59dgXECy59pDM4kpuvGyusoeL7RyQ8C0NVX6i93r2WedRJ6bnUOVlz4TZ6HxzE7bnxfGg1Ycs53lm8wh7U1os0AypUNd4ZPksWw1SvCuwR13qXs49Cvmte8t/jsXZpOmERp3EzX72Er12MPKR2IR0ShiB8TF2if2/JyLjRYk0+r4EMRa16jw+6t90m+nxcdpLw2KzOK4bLehieO9w8Dc=);" vertex="1" parent="zClbhPuZxZK9FAB6tKzK-135">
          <mxGeometry width="50" height="50" as="geometry"/>
        </mxCell>
        <mxCell id="zClbhPuZxZK9FAB6tKzK-137" value="+" style="text;html=1;strokeColor=none;fillColor=none;align=center;verticalAlign=middle;whiteSpace=wrap;rounded=0;fontSize=8;" vertex="1" parent="zClbhPuZxZK9FAB6tKzK-135">
          <mxGeometry x="6.166666666666667" width="8.333333333333334" height="12.5" as="geometry"/>
        </mxCell>
        <mxCell id="zClbhPuZxZK9FAB6tKzK-138" value="+/-" style="text;html=1;strokeColor=none;fillColor=none;align=center;verticalAlign=middle;whiteSpace=wrap;rounded=0;fontSize=8;" vertex="1" parent="zClbhPuZxZK9FAB6tKzK-135">
          <mxGeometry x="35.5" width="8.333333333333334" height="12.5" as="geometry"/>
        </mxCell>
        <mxCell id="zClbhPuZxZK9FAB6tKzK-139" value="" style="group;fontSize=8;" vertex="1" connectable="0" parent="1">
          <mxGeometry x="390" y="765" width="130" height="20" as="geometry"/>
        </mxCell>
        <mxCell id="zClbhPuZxZK9FAB6tKzK-140" value="Register" style="rounded=0;whiteSpace=wrap;html=1;fontStyle=0" vertex="1" parent="zClbhPuZxZK9FAB6tKzK-139">
          <mxGeometry width="130" height="20" as="geometry"/>
        </mxCell>
        <mxCell id="zClbhPuZxZK9FAB6tKzK-141" value="MSB" style="text;html=1;strokeColor=#000000;fillColor=none;align=center;verticalAlign=middle;whiteSpace=wrap;rounded=0;perimeterSpacing=1;dashed=1;fontSize=6;" vertex="1" parent="zClbhPuZxZK9FAB6tKzK-139">
          <mxGeometry width="15.600000000000001" height="20" as="geometry"/>
        </mxCell>
        <mxCell id="zClbhPuZxZK9FAB6tKzK-142" value="LSB" style="text;html=1;strokeColor=#000000;fillColor=none;align=center;verticalAlign=middle;whiteSpace=wrap;rounded=0;perimeterSpacing=1;dashed=1;fontSize=6;" vertex="1" parent="zClbhPuZxZK9FAB6tKzK-139">
          <mxGeometry x="114.4" width="15.600000000000001" height="20" as="geometry"/>
        </mxCell>
        <mxCell id="zClbhPuZxZK9FAB6tKzK-143" style="rounded=0;orthogonalLoop=1;jettySize=auto;html=1;fontSize=6;" edge="1" parent="1" source="zClbhPuZxZK9FAB6tKzK-136" target="zClbhPuZxZK9FAB6tKzK-140">
          <mxGeometry relative="1" as="geometry"/>
        </mxCell>
        <mxCell id="zClbhPuZxZK9FAB6tKzK-144" style="edgeStyle=none;rounded=0;orthogonalLoop=1;jettySize=auto;html=1;fontSize=12;" edge="1" parent="1" source="zClbhPuZxZK9FAB6tKzK-145" target="zClbhPuZxZK9FAB6tKzK-136">
          <mxGeometry relative="1" as="geometry"/>
        </mxCell>
        <mxCell id="zClbhPuZxZK9FAB6tKzK-145" value="sgn(y)" style="text;html=1;strokeColor=none;fillColor=none;align=center;verticalAlign=middle;whiteSpace=wrap;rounded=0;fontSize=12;" vertex="1" parent="1">
          <mxGeometry x="510" y="669" width="40" height="20" as="geometry"/>
        </mxCell>
        <mxCell id="zClbhPuZxZK9FAB6tKzK-146" style="edgeStyle=none;rounded=0;orthogonalLoop=1;jettySize=auto;html=1;fontSize=12;" edge="1" parent="1" source="zClbhPuZxZK9FAB6tKzK-147" target="zClbhPuZxZK9FAB6tKzK-115">
          <mxGeometry relative="1" as="geometry"/>
        </mxCell>
        <mxCell id="zClbhPuZxZK9FAB6tKzK-147" value="sgn(y)" style="text;html=1;strokeColor=none;fillColor=none;align=center;verticalAlign=middle;whiteSpace=wrap;rounded=0;fontSize=12;" vertex="1" parent="1">
          <mxGeometry x="330" y="699" width="40" height="20" as="geometry"/>
        </mxCell>
        <mxCell id="zClbhPuZxZK9FAB6tKzK-148" style="edgeStyle=none;rounded=0;orthogonalLoop=1;jettySize=auto;html=1;fontSize=12;" edge="1" parent="1" source="zClbhPuZxZK9FAB6tKzK-149" target="zClbhPuZxZK9FAB6tKzK-110">
          <mxGeometry relative="1" as="geometry"/>
        </mxCell>
        <mxCell id="zClbhPuZxZK9FAB6tKzK-149" value="sgn(y)" style="text;html=1;strokeColor=none;fillColor=none;align=center;verticalAlign=middle;whiteSpace=wrap;rounded=0;fontSize=12;" vertex="1" parent="1">
          <mxGeometry x="193.32999999999998" y="699" width="40" height="20" as="geometry"/>
        </mxCell>
        <mxCell id="zClbhPuZxZK9FAB6tKzK-150" style="edgeStyle=none;rounded=0;orthogonalLoop=1;jettySize=auto;html=1;fontSize=12;" edge="1" parent="1" source="zClbhPuZxZK9FAB6tKzK-110" target="zClbhPuZxZK9FAB6tKzK-119">
          <mxGeometry relative="1" as="geometry"/>
        </mxCell>
        <mxCell id="zClbhPuZxZK9FAB6tKzK-151" style="edgeStyle=none;rounded=0;orthogonalLoop=1;jettySize=auto;html=1;fontSize=12;" edge="1" parent="1" source="zClbhPuZxZK9FAB6tKzK-115" target="zClbhPuZxZK9FAB6tKzK-123">
          <mxGeometry relative="1" as="geometry"/>
        </mxCell>
        <mxCell id="zClbhPuZxZK9FAB6tKzK-152" value="" style="endArrow=classic;html=1;fontSize=12;startArrow=oval;startFill=1;edgeStyle=elbowEdgeStyle;entryX=0.5;entryY=0;entryDx=0;entryDy=0;" edge="1" parent="1" target="zClbhPuZxZK9FAB6tKzK-105">
          <mxGeometry width="50" height="50" relative="1" as="geometry">
            <mxPoint x="126" y="614" as="sourcePoint"/>
            <mxPoint x="251.6410256410257" y="639.8974358974359" as="targetPoint"/>
            <Array as="points">
              <mxPoint x="270" y="624"/>
            </Array>
          </mxGeometry>
        </mxCell>
        <mxCell id="zClbhPuZxZK9FAB6tKzK-153" value="" style="endArrow=classic;html=1;fontSize=12;startArrow=oval;startFill=1;edgeStyle=elbowEdgeStyle;" edge="1" parent="1" target="zClbhPuZxZK9FAB6tKzK-107">
          <mxGeometry width="50" height="50" relative="1" as="geometry">
            <mxPoint x="303" y="600" as="sourcePoint"/>
            <mxPoint x="183.00000000000006" y="640" as="targetPoint"/>
            <Array as="points">
              <mxPoint x="170" y="614"/>
              <mxPoint x="160" y="624"/>
            </Array>
          </mxGeometry>
        </mxCell>
        <mxCell id="zClbhPuZxZK9FAB6tKzK-154" value="&lt;font style=&quot;font-size: 12px&quot;&gt;x&lt;sub&gt;n&lt;/sub&gt;&lt;/font&gt;" style="text;html=1;align=center;verticalAlign=middle;resizable=0;points=[];autosize=1;fontSize=12;fontStyle=1" vertex="1" parent="1">
          <mxGeometry x="130" y="810" width="30" height="20" as="geometry"/>
        </mxCell>
        <mxCell id="zClbhPuZxZK9FAB6tKzK-155" value="&lt;font style=&quot;font-size: 12px&quot;&gt;y&lt;sub&gt;n&lt;/sub&gt;&lt;/font&gt;" style="text;html=1;align=center;verticalAlign=middle;resizable=0;points=[];autosize=1;fontSize=12;fontStyle=1" vertex="1" parent="1">
          <mxGeometry x="270" y="810" width="30" height="20" as="geometry"/>
        </mxCell>
        <mxCell id="zClbhPuZxZK9FAB6tKzK-156" value="&lt;font style=&quot;font-size: 12px&quot;&gt;z&lt;sub&gt;n&lt;/sub&gt;&lt;/font&gt;" style="text;html=1;align=center;verticalAlign=middle;resizable=0;points=[];autosize=1;fontSize=12;fontStyle=1" vertex="1" parent="1">
          <mxGeometry x="440" y="810" width="30" height="20" as="geometry"/>
        </mxCell>
        <mxCell id="zClbhPuZxZK9FAB6tKzK-157" style="edgeStyle=elbowEdgeStyle;rounded=0;orthogonalLoop=1;jettySize=auto;html=1;startArrow=none;startFill=0;endArrow=classic;endFill=1;fontSize=12;" edge="1" parent="1" source="zClbhPuZxZK9FAB6tKzK-119" target="zClbhPuZxZK9FAB6tKzK-154">
          <mxGeometry relative="1" as="geometry"/>
        </mxCell>
        <mxCell id="zClbhPuZxZK9FAB6tKzK-158" style="edgeStyle=elbowEdgeStyle;rounded=0;orthogonalLoop=1;jettySize=auto;html=1;startArrow=none;startFill=0;endArrow=classic;endFill=1;fontSize=12;" edge="1" parent="1" source="zClbhPuZxZK9FAB6tKzK-123" target="zClbhPuZxZK9FAB6tKzK-155">
          <mxGeometry relative="1" as="geometry"/>
        </mxCell>
        <mxCell id="zClbhPuZxZK9FAB6tKzK-159" style="edgeStyle=elbowEdgeStyle;rounded=0;orthogonalLoop=1;jettySize=auto;html=1;startArrow=none;startFill=0;endArrow=classic;endFill=1;fontSize=12;" edge="1" parent="1" source="zClbhPuZxZK9FAB6tKzK-140" target="zClbhPuZxZK9FAB6tKzK-156">
          <mxGeometry relative="1" as="geometry"/>
        </mxCell>
        <mxCell id="zClbhPuZxZK9FAB6tKzK-160" style="edgeStyle=elbowEdgeStyle;rounded=0;orthogonalLoop=1;jettySize=auto;html=1;startArrow=none;startFill=0;endArrow=none;endFill=0;fontSize=12;dashed=1;" edge="1" parent="1" source="zClbhPuZxZK9FAB6tKzK-66" target="zClbhPuZxZK9FAB6tKzK-127">
          <mxGeometry relative="1" as="geometry"/>
        </mxCell>
        <mxCell id="zClbhPuZxZK9FAB6tKzK-161" style="edgeStyle=elbowEdgeStyle;rounded=0;orthogonalLoop=1;jettySize=auto;html=1;dashed=1;startArrow=none;startFill=0;endArrow=none;endFill=0;fontSize=12;" edge="1" parent="1" source="zClbhPuZxZK9FAB6tKzK-70" target="zClbhPuZxZK9FAB6tKzK-129">
          <mxGeometry relative="1" as="geometry"/>
        </mxCell>
        <mxCell id="zClbhPuZxZK9FAB6tKzK-162" style="edgeStyle=elbowEdgeStyle;rounded=0;orthogonalLoop=1;jettySize=auto;html=1;dashed=1;startArrow=none;startFill=0;endArrow=none;endFill=0;fontSize=12;" edge="1" parent="1" source="zClbhPuZxZK9FAB6tKzK-87" target="zClbhPuZxZK9FAB6tKzK-131">
          <mxGeometry relative="1" as="geometry"/>
        </mxCell>
        <mxCell id="zClbhPuZxZK9FAB6tKzK-164" value=". . . . ." style="text;html=1;strokeColor=none;fillColor=none;align=center;verticalAlign=middle;whiteSpace=wrap;rounded=0;fontSize=32;" vertex="1" parent="1">
          <mxGeometry x="160" y="540" width="120" height="20" as="geometry"/>
        </mxCell>
        <mxCell id="zClbhPuZxZK9FAB6tKzK-165" value=". . . . ." style="text;html=1;strokeColor=none;fillColor=none;align=center;verticalAlign=middle;whiteSpace=wrap;rounded=0;fontSize=32;" vertex="1" parent="1">
          <mxGeometry x="311.43" y="540" width="120" height="20" as="geometry"/>
        </mxCell>
      </root>
    </mxGraphModel>
  </diagram>
</mxfile>
